<svg xmlns="http://www.w3.org/2000/svg" xmlns:xlink="http://www.w3.org/1999/xlink" viewBox="0 0 132.51123595505618 154.5" height="154.5" width="132.51123595505618" data-background-color="#f9f9f9" preserveAspectRatio="xMidYMid meet" id="tight-bounds"><g><svg viewBox="0 0 132.51123595505618 154.5" height="154.5" width="132.51123595505618"><g><svg viewBox="0 0 132.51123595505618 154.5" height="154.5" width="132.51123595505618"><g id="textblocktransform"><svg viewBox="0 0 132.51123595505618 154.5" height="154.5" width="132.51123595505618" id="textblock"><g><svg viewBox="0 0 132.51123595505618 154.5" height="154.5" width="132.51123595505618"><g transform="matrix(1,0,0,1,0,0)"><svg width="132.51123595505618" viewBox="1.350000023841858 -26 22.899999618530273 26.700000762939453" height="154.5" data-palette-color="#030303"><path d="M20.4-19.8L20.45-9.1 20.8-2.05 24.25-1.55 23.9 0.1 16.95 0.7 16.3-2.25 16.05-2.25 11.1 0.7 5.9 0.7 2.4-1.85 1.35-6.75 3.55-10.65 9.55-13.25 16.15-13.5 15.95-19.75 15-22.85 10.95-24 6.1-22.85 5.95-17.55 4-17.15 2.7-24 8.45-25.7 14.9-26 18.8-24.1 20.4-19.8ZM6.2-6.85L7.55-2.8 11.3-1.85 16.35-4.75 16.15-11.5 11.8-11.5 7.95-9.95 6.2-6.85Z" opacity="1" transform="matrix(1,0,0,1,0,0)" fill="#030303" class="wordmark-text-0" data-fill-palette-color="primary" id="text-0"/></svg></g></svg></g></svg></g></svg></g><g/></svg></g><defs/></svg>