<svg xmlns="http://www.w3.org/2000/svg" xmlns:xlink="http://www.w3.org/1999/xlink" width="100%" height="100%" version="1.1" viewBox="0 0 1003 529" xml:space="preserve" style="fill-rule:evenodd;clip-rule:evenodd;stroke-miterlimit:10"><g transform="matrix(1,0,0,1,-60.1919,-963.071)"><rect id="Artboard1" width="1002.92" height="528.331" x="60.192" y="963.071" style="fill:none"/><g id="Artboard11"><g><g transform="matrix(1,0,0,1,36.4898,714.706) matrix(0.496834,0,0,0.496834,374.209,311.424)"><g id="Logo"><g><g id="g1738"><g id="g1736"><clipPath id="_clip1"><path d="M151.047,0C67.684,0 0,67.684 0,151.047L0,453.141C0,536.508 67.684,604.188 151.047,604.188L453.141,604.188C536.508,604.188 604.188,536.508 604.188,453.141L604.188,151.047C604.188,67.684 536.508,0 453.141,0L151.047,0Z"/></clipPath><g clip-path="url(#_clip1)"><rect id="path1734" width="604.188" height="604.188" x="0" y="0" style="fill:url(#_Radial2);fill-rule:nonzero"/></g></g></g><path id="path1740" d="M249.641,313.469L77.898,572.973L95.734,578.258L249.641,313.469Z" style="fill:#f259c9;fill-rule:nonzero"/><path id="path1742" d="M348.703,312.484L520.445,580.902L502.609,586.188L348.703,312.484Z" style="fill:#f259c9;fill-rule:nonzero"/><path id="path1744" d="M314.09,597.16L306.047,314L304.168,314L295.887,592.141L314.09,597.16Z" style="fill:#f259c9;fill-rule:nonzero"/><path id="path1746" d="M8.051,439.422C8.094,444.859 8.184,450.273 8.344,455.723L194.477,312.484L8.051,439.422Z" style="fill:#f259c9;fill-rule:nonzero"/><path id="path1748" d="M413.063,313.469L589.785,449.465C590.242,444.75 591.148,440.031 592.012,435.313L413.063,313.469Z" style="fill:#f259c9;fill-rule:nonzero"/><path id="path1750" d="M12.438,354.348C12.48,356.691 12.41,359.035 12.258,361.383L105.254,313.469L12.438,354.348Z" style="fill:#f259c9;fill-rule:nonzero"/><path id="path1752" d="M600.766,355.043C600.727,357.387 600.793,359.73 600.945,362.074L507.953,314.164L600.766,355.043Z" style="fill:#f259c9;fill-rule:nonzero"/><path id="path1754" d="M9.863,313.469L591.625,313.469" style="fill:none;fill-rule:nonzero;stroke:#f259c9;stroke-width:2.25px"/><path id="path1756" d="M11.215,338.121L592.977,338.121" style="fill:none;fill-rule:nonzero;stroke:#f259c9;stroke-width:4.5px"/><path id="path1758" d="M5.66,371.422L587.422,371.422" style="fill:none;fill-rule:nonzero;stroke:#f259c9;stroke-width:9px"/><path id="path1760" d="M9.863,413.855L591.625,413.855" style="fill:none;fill-rule:nonzero;stroke:#f259c9;stroke-width:13.5px"/><path id="path1762" d="M28.359,529.246L576.613,529.246" style="fill:none;fill-rule:nonzero;stroke:#f259c9;stroke-width:23.4px"/><path id="path1764" d="M11.215,469.832L592.977,469.832" style="fill:none;fill-rule:nonzero;stroke:#f259c9;stroke-width:18px"/><g id="g1768"><clipPath id="_clip3"><rect width="604.188" height="327" x="0" y="102"/></clipPath><g clip-path="url(#_clip3)"><g id="path1766"><path d="M0.001,-0L-28.882,20.179L-64.55,10.089L-104.183,34.347L-170.238,2.64L-281.87,66.054L-358.949,12.55L-427.855,68.039L-482.101,5.945L-522.312,44.328L-579.366,-3.961" style="fill:none;fill-rule:nonzero;stroke:#3aa2e8;stroke-width:9px" transform="matrix(1,0,0,-1,591.624,297.523)"/></g></g></g><g id="g1774"><g id="g1772"><clipPath id="_clip4"><path d="M151.047,0C67.684,0 0,67.684 0,151.047L0,453.141C0,536.508 67.684,604.188 151.047,604.188L453.141,604.188C536.508,604.188 604.188,536.508 604.188,453.141L604.188,151.047C604.188,67.684 536.508,0 453.141,0L151.047,0ZM18,453.141L18,151.047C18,77.684 77.684,18 151.047,18L453.141,18C526.504,18 586.188,77.684 586.188,151.047L586.188,453.141C586.188,526.504 526.504,586.188 453.141,586.188L151.047,586.188C77.684,586.188 18,526.504 18,453.141"/></clipPath><g clip-path="url(#_clip4)"><rect id="path1770" width="604.188" height="604.188" x="0" y="0" style="fill:url(#_Linear5);fill-rule:nonzero"/></g></g></g><g id="g1784"><g id="g1782"><clipPath id="_clip6"><path d="M408.719,115.129L400.289,119.363L396.949,127.805L401.145,140.934L397.816,150.77L397.109,163.852L392,176L382.254,182.992L380.027,191.188L385.992,206.055L383.332,214.848L376.031,224.172L372.656,233.281L359.789,241.402L355.617,253.051L348.945,262.016L345.617,272.254L350.055,285.344L345.695,296.219L347.246,305.32L339.211,316.445L328.852,322.461L305.145,390.977L298.219,394.52L267.609,489.02L351.313,515.246L363.488,478.09L382.027,421.629L378.52,415.52L469.848,110.434C470.086,110.086 470.402,109.117 470.508,108.117C470.645,106.773 470.402,105.367 469.074,105.281C463.801,104.953 454.953,93.313 444,90.66C443.051,90.43 442.082,90.324 441.105,90.324C426.258,90.324 408.719,115.129 408.719,115.129"/></clipPath><g clip-path="url(#_clip6)"><path id="path1780" d="M419.887,603.164L654.645,196.555L318.367,2.406L83.613,409.016L419.887,603.164Z" style="fill:url(#_Linear7);fill-rule:nonzero"/></g></g></g><g id="g1790"><g id="g1788"><clipPath id="_clip8"><path d="M431.617,105.828C429.539,109.441 329.672,397.727 329.672,397.727C329.672,397.727 327.168,402.621 330.207,405.254C333.512,408.113 337.77,398.512 343.332,391.535C348.895,384.563 360.527,360.746 363.703,351.887C366.879,343.027 445.559,104.16 445.559,104.16C446.004,103.168 445.25,102.121 443.855,101.43C442.879,100.938 441.582,100.625 440.164,100.621C437.262,100.621 433.848,101.949 431.617,105.828"/></clipPath><g clip-path="url(#_clip8)"><rect id="path1786" width="118.836" height="307.492" x="327.168" y="100.621" style="fill:url(#_Linear9);fill-rule:nonzero"/></g></g></g><g id="g1796"><g id="g1794"><clipPath id="_clip10"><path d="M197.906,74.723L116.426,102.449C111.105,104.262 108.258,110.051 110.066,115.367L254.523,539.855C256.336,545.176 262.125,548.023 267.441,546.215L348.926,518.484C354.246,516.676 357.094,510.887 355.281,505.566L210.824,81.078C209.383,76.848 205.422,74.18 201.184,74.18C200.098,74.18 198.992,74.352 197.906,74.723"/></clipPath><g clip-path="url(#_clip10)"><path id="path1792" d="M170.465,655.773L562.273,429.563L294.883,-33.57L-96.926,192.641L170.465,655.773Z" style="fill:url(#_Linear11);fill-rule:nonzero"/></g></g></g></g></g></g><g><g><path d="M0.375,-0L0,-0.375L0,-1L0.25,-1L0.25,-0.5L0.5,-0.25L0.75,-0.5L0.75,-1L1,-1L1,-0.375L0.625,-0L0.375,-0Z" style="fill:#f259c9;fill-rule:nonzero" transform="matrix(1,0,0,1,36.4898,714.706) matrix(12.4032,0,0,12.4032,61.7251,730.316) matrix(7.73995,0,0,7.73995,0,-8.88178e-16)"/></g><g><path d="M0,-0L0,-1L1,-1L1,-0.75L0.25,-0.75L0.25,-0.625L1,-0.625L1,-0.375L0.25,-0.375L0.25,-0.25L1,-0.25L1,-0L0,-0Z" style="fill:#f259c9;fill-rule:nonzero" transform="matrix(1,0,0,1,36.4898,714.706) matrix(12.4032,0,0,12.4032,61.7251,730.316) matrix(7.73995,0,0,7.73995,8.51093,-8.88178e-16)"/></g><g transform="matrix(1,0,0,1,36.4898,714.706) matrix(12.4032,0,0,12.4032,61.7251,730.316) matrix(7.73995,0,0,7.73995,17.0219,-8.88178e-16)"><rect width=".25" height="1" x="0" y="-1" style="fill:#f259c9;fill-rule:nonzero"/></g><g><path d="M0,-0L0,-1L0.25,-1L0.25,-0.25L1,-0.25L1,-0L0,-0Z" style="fill:#f259c9;fill-rule:nonzero" transform="matrix(1,0,0,1,36.4898,714.706) matrix(12.4032,0,0,12.4032,61.7251,730.316) matrix(7.73995,0,0,7.73995,19.7278,-8.88178e-16)"/></g><g transform="matrix(1,0,0,1,36.4898,714.706) matrix(12.4032,0,0,12.4032,61.7251,730.316) matrix(7.73995,0,0,7.73995,28.2387,-8.88178e-16)"><rect width=".25" height="1" x="0" y="-1" style="fill:#f259c9;fill-rule:nonzero"/></g><g><path d="M0.688,-0.25L0.75,-0.313L0.75,-0.688L0.688,-0.75L0.25,-0.75L0.25,-0.25L0.688,-0.25ZM0,-0L0,-1L0.875,-1L1,-0.875L1,-0.125L0.875,-0L0,-0Z" style="fill:#f259c9;fill-rule:nonzero" transform="matrix(1,0,0,1,36.4898,714.706) matrix(12.4032,0,0,12.4032,61.7251,730.316) matrix(7.73995,0,0,7.73995,30.9447,-8.88178e-16)"/></g><g><path d="M0,-0L0,-1L1,-1L1,-0.75L0.25,-0.75L0.25,-0.25L1,-0.25L1,-0L0,-0Z" style="fill:#3aa2e8;fill-rule:nonzero" transform="matrix(1,0,0,1,36.4898,714.706) matrix(12.4032,0,0,12.4032,61.7251,730.316) matrix(7.73995,0,0,7.73995,39.4556,-8.88178e-16)"/></g><g><path d="M0,-0L0,-1L0.25,-1L0.25,-0.625L0.75,-0.625L0.75,-1L1,-1L1,-0L0.75,-0L0.75,-0.375L0.25,-0.375L0.25,-0L0,-0Z" style="fill:#3aa2e8;fill-rule:nonzero" transform="matrix(1,0,0,1,36.4898,714.706) matrix(12.4032,0,0,12.4032,61.7251,730.316) matrix(7.73995,0,0,7.73995,47.9665,-8.88178e-16)"/></g><g><path d="M0.75,-0.625L0.75,-0.75L0.25,-0.75L0.25,-0.625L0.75,-0.625ZM0,-0L0,-1L1,-1L1,-0L0.75,-0L0.75,-0.375L0.25,-0.375L0.25,-0L0,-0Z" style="fill:#3aa2e8;fill-rule:nonzero" transform="matrix(1,0,0,1,36.4898,714.706) matrix(12.4032,0,0,12.4032,61.7251,730.316) matrix(7.73995,0,0,7.73995,56.4775,-8.88178e-16)"/></g><g><path d="M0.375,-0L0.375,-0.75L0,-0.75L0,-1L1,-1L1,-0.75L0.625,-0.75L0.625,-0L0.375,-0Z" style="fill:#3aa2e8;fill-rule:nonzero" transform="matrix(1,0,0,1,36.4898,714.706) matrix(12.4032,0,0,12.4032,61.7251,730.316) matrix(7.73995,0,0,7.73995,64.9884,-8.88178e-16)"/></g></g></g></g></g><defs><radialGradient id="_Radial2" cx="0" cy="0" r="1" gradientTransform="matrix(302.094,0,0,302.094,302.094,302.094)" gradientUnits="userSpaceOnUse"><stop offset="0" style="stop-color:#727286;stop-opacity:1"/><stop offset=".01" style="stop-color:#727286;stop-opacity:1"/><stop offset=".02" style="stop-color:#717185;stop-opacity:1"/><stop offset=".04" style="stop-color:#707083;stop-opacity:1"/><stop offset=".09" style="stop-color:#6e6e80;stop-opacity:1"/><stop offset=".1" style="stop-color:#6e6e80;stop-opacity:1"/><stop offset=".11" style="stop-color:#6d6d7f;stop-opacity:1"/><stop offset=".14" style="stop-color:#6c6c7d;stop-opacity:1"/><stop offset=".18" style="stop-color:#6a6a7a;stop-opacity:1"/><stop offset=".2" style="stop-color:#6a6a7a;stop-opacity:1"/><stop offset=".21" style="stop-color:#696979;stop-opacity:1"/><stop offset=".23" style="stop-color:#686877;stop-opacity:1"/><stop offset=".25" style="stop-color:#676776;stop-opacity:1"/><stop offset=".26" style="stop-color:#676775;stop-opacity:1"/><stop offset=".27" style="stop-color:#666675;stop-opacity:1"/><stop offset=".28" style="stop-color:#666674;stop-opacity:1"/><stop offset=".29" style="stop-color:#666674;stop-opacity:1"/><stop offset=".29" style="stop-color:#656573;stop-opacity:1"/><stop offset=".3" style="stop-color:#656573;stop-opacity:1"/><stop offset=".31" style="stop-color:#656572;stop-opacity:1"/><stop offset=".32" style="stop-color:#646472;stop-opacity:1"/><stop offset=".32" style="stop-color:#646471;stop-opacity:1"/><stop offset=".33" style="stop-color:#646471;stop-opacity:1"/><stop offset=".34" style="stop-color:#636370;stop-opacity:1"/><stop offset=".35" style="stop-color:#636370;stop-opacity:1"/><stop offset=".36" style="stop-color:#63636f;stop-opacity:1"/><stop offset=".36" style="stop-color:#62626f;stop-opacity:1"/><stop offset=".37" style="stop-color:#62626e;stop-opacity:1"/><stop offset=".38" style="stop-color:#62626e;stop-opacity:1"/><stop offset=".39" style="stop-color:#61616d;stop-opacity:1"/><stop offset=".39" style="stop-color:#61616d;stop-opacity:1"/><stop offset=".4" style="stop-color:#61616c;stop-opacity:1"/><stop offset=".41" style="stop-color:#60606c;stop-opacity:1"/><stop offset=".42" style="stop-color:#60606b;stop-opacity:1"/><stop offset=".43" style="stop-color:#60606b;stop-opacity:1"/><stop offset=".43" style="stop-color:#5f5f6a;stop-opacity:1"/><stop offset=".44" style="stop-color:#5f5f6a;stop-opacity:1"/><stop offset=".45" style="stop-color:#5f5f69;stop-opacity:1"/><stop offset=".46" style="stop-color:#5e5e69;stop-opacity:1"/><stop offset=".46" style="stop-color:#5e5e68;stop-opacity:1"/><stop offset=".47" style="stop-color:#5e5e68;stop-opacity:1"/><stop offset=".48" style="stop-color:#5d5d67;stop-opacity:1"/><stop offset=".49" style="stop-color:#5d5d67;stop-opacity:1"/><stop offset=".5" style="stop-color:#5c5c66;stop-opacity:1"/><stop offset=".5" style="stop-color:#5c5c66;stop-opacity:1"/><stop offset=".53" style="stop-color:#5b5b64;stop-opacity:1"/><stop offset=".54" style="stop-color:#5b5b64;stop-opacity:1"/><stop offset=".56" style="stop-color:#595962;stop-opacity:1"/><stop offset=".57" style="stop-color:#595961;stop-opacity:1"/><stop offset=".59" style="stop-color:#585861;stop-opacity:1"/><stop offset=".6" style="stop-color:#585860;stop-opacity:1"/><stop offset=".61" style="stop-color:#57575f;stop-opacity:1"/><stop offset=".62" style="stop-color:#57575e;stop-opacity:1"/><stop offset=".63" style="stop-color:#56565e;stop-opacity:1"/><stop offset=".64" style="stop-color:#56565d;stop-opacity:1"/><stop offset=".66" style="stop-color:#55555c;stop-opacity:1"/><stop offset=".66" style="stop-color:#55555c;stop-opacity:1"/><stop offset=".67" style="stop-color:#55555b;stop-opacity:1"/><stop offset=".68" style="stop-color:#54545b;stop-opacity:1"/><stop offset=".69" style="stop-color:#54545a;stop-opacity:1"/><stop offset=".7" style="stop-color:#54545a;stop-opacity:1"/><stop offset=".72" style="stop-color:#535358;stop-opacity:1"/><stop offset=".73" style="stop-color:#525258;stop-opacity:1"/><stop offset=".73" style="stop-color:#525257;stop-opacity:1"/><stop offset=".75" style="stop-color:#515156;stop-opacity:1"/><stop offset=".76" style="stop-color:#515156;stop-opacity:1"/><stop offset=".77" style="stop-color:#505055;stop-opacity:1"/><stop offset=".79" style="stop-color:#4f4f53;stop-opacity:1"/><stop offset=".82" style="stop-color:#4e4e52;stop-opacity:1"/><stop offset=".82" style="stop-color:#4e4e51;stop-opacity:1"/><stop offset=".83" style="stop-color:#4e4e51;stop-opacity:1"/><stop offset=".84" style="stop-color:#4d4d50;stop-opacity:1"/><stop offset=".85" style="stop-color:#4d4d50;stop-opacity:1"/><stop offset=".86" style="stop-color:#4d4d4f;stop-opacity:1"/><stop offset=".86" style="stop-color:#4c4c4f;stop-opacity:1"/><stop offset=".87" style="stop-color:#4c4c4e;stop-opacity:1"/><stop offset=".88" style="stop-color:#4c4c4e;stop-opacity:1"/><stop offset=".89" style="stop-color:#4b4b4d;stop-opacity:1"/><stop offset=".9" style="stop-color:#4b4b4c;stop-opacity:1"/><stop offset=".91" style="stop-color:#4a4a4c;stop-opacity:1"/><stop offset=".92" style="stop-color:#4a4a4b;stop-opacity:1"/><stop offset=".93" style="stop-color:#49494b;stop-opacity:1"/><stop offset=".94" style="stop-color:#49494a;stop-opacity:1"/><stop offset=".95" style="stop-color:#49494a;stop-opacity:1"/><stop offset=".96" style="stop-color:#484849;stop-opacity:1"/><stop offset=".96" style="stop-color:#484848;stop-opacity:1"/><stop offset=".97" style="stop-color:#474748;stop-opacity:1"/><stop offset=".98" style="stop-color:#474747;stop-opacity:1"/><stop offset="1" style="stop-color:#464646;stop-opacity:1"/></radialGradient><linearGradient id="_Linear5" x1="0" x2="1" y1="0" y2="0" gradientTransform="matrix(604.188,0,0,604.188,-2.66916e-11,302.094)" gradientUnits="userSpaceOnUse"><stop offset="0" style="stop-color:#8588d0;stop-opacity:1"/><stop offset=".13" style="stop-color:#878ad0;stop-opacity:1"/><stop offset=".19" style="stop-color:#898bd0;stop-opacity:1"/><stop offset=".22" style="stop-color:#898cd0;stop-opacity:1"/><stop offset=".25" style="stop-color:#8a8cd0;stop-opacity:1"/><stop offset=".28" style="stop-color:#8a8dcf;stop-opacity:1"/><stop offset=".31" style="stop-color:#8b8dcf;stop-opacity:1"/><stop offset=".34" style="stop-color:#8b8ecf;stop-opacity:1"/><stop offset=".38" style="stop-color:#8c8ecf;stop-opacity:1"/><stop offset=".44" style="stop-color:#8d8fcf;stop-opacity:1"/><stop offset=".53" style="stop-color:#9193cf;stop-opacity:1"/><stop offset=".54" style="stop-color:#9193d0;stop-opacity:1"/><stop offset=".58" style="stop-color:#9597d1;stop-opacity:1"/><stop offset=".59" style="stop-color:#9597d1;stop-opacity:1"/><stop offset=".59" style="stop-color:#9698d2;stop-opacity:1"/><stop offset=".62" style="stop-color:#989ad2;stop-opacity:1"/><stop offset=".63" style="stop-color:#999bd3;stop-opacity:1"/><stop offset=".63" style="stop-color:#999bd3;stop-opacity:1"/><stop offset=".65" style="stop-color:#9b9dd3;stop-opacity:1"/><stop offset=".66" style="stop-color:#9b9dd4;stop-opacity:1"/><stop offset=".68" style="stop-color:#9ea0d4;stop-opacity:1"/><stop offset=".69" style="stop-color:#9ea0d5;stop-opacity:1"/><stop offset=".7" style="stop-color:#a0a2d5;stop-opacity:1"/><stop offset=".71" style="stop-color:#a0a2d6;stop-opacity:1"/><stop offset=".75" style="stop-color:#a4a6d7;stop-opacity:1"/><stop offset=".76" style="stop-color:#a4a6d7;stop-opacity:1"/><stop offset=".77" style="stop-color:#a5a7d7;stop-opacity:1"/><stop offset=".77" style="stop-color:#a6a8d8;stop-opacity:1"/><stop offset=".78" style="stop-color:#a6a8d8;stop-opacity:1"/><stop offset=".8" style="stop-color:#a8aad8;stop-opacity:1"/><stop offset=".8" style="stop-color:#a8aad9;stop-opacity:1"/><stop offset=".82" style="stop-color:#aaacd9;stop-opacity:1"/><stop offset=".83" style="stop-color:#aaacda;stop-opacity:1"/><stop offset=".87" style="stop-color:#aeb0db;stop-opacity:1"/><stop offset=".88" style="stop-color:#aeb0db;stop-opacity:1"/><stop offset=".88" style="stop-color:#afb1db;stop-opacity:1"/><stop offset=".89" style="stop-color:#b0b2dc;stop-opacity:1"/><stop offset=".9" style="stop-color:#b0b2dc;stop-opacity:1"/><stop offset=".91" style="stop-color:#b2b4dc;stop-opacity:1"/><stop offset=".92" style="stop-color:#b2b4dd;stop-opacity:1"/><stop offset=".94" style="stop-color:#b4b6dd;stop-opacity:1"/><stop offset=".95" style="stop-color:#b4b6dd;stop-opacity:1"/><stop offset=".95" style="stop-color:#b5b7de;stop-opacity:1"/><stop offset=".98" style="stop-color:#b8badf;stop-opacity:1"/><stop offset=".99" style="stop-color:#b8badf;stop-opacity:1"/><stop offset="1" style="stop-color:#b9bbdf;stop-opacity:1"/></linearGradient><linearGradient id="_Linear7" x1="0" x2="1" y1="0" y2="0" gradientTransform="matrix(-336.274,-194.148,194.148,-336.274,539.788,395.487)" gradientUnits="userSpaceOnUse"><stop offset="0" style="stop-color:#a5a5a5;stop-opacity:1"/><stop offset=".35" style="stop-color:#b8b8b8;stop-opacity:1"/><stop offset=".38" style="stop-color:#bfbfbf;stop-opacity:1"/><stop offset=".41" style="stop-color:#c5c5c5;stop-opacity:1"/><stop offset=".47" style="stop-color:#d3d3d3;stop-opacity:1"/><stop offset=".5" style="stop-color:#d9d9d9;stop-opacity:1"/><stop offset=".5" style="stop-color:#d9d9d9;stop-opacity:1"/><stop offset=".53" style="stop-color:#e0e0e0;stop-opacity:1"/><stop offset=".55" style="stop-color:#e6e6e6;stop-opacity:1"/><stop offset=".56" style="stop-color:#e6e6e6;stop-opacity:1"/><stop offset=".59" style="stop-color:#ededed;stop-opacity:1"/><stop offset=".59" style="stop-color:#ededed;stop-opacity:1"/><stop offset="1" style="stop-color:#fefefe;stop-opacity:1"/></linearGradient><linearGradient id="_Linear9" x1="0" x2="1" y1="0" y2="0" gradientTransform="matrix(118.836,0,0,118.836,327.169,253.197)" gradientUnits="userSpaceOnUse"><stop offset="0" style="stop-color:#bebebe;stop-opacity:1"/><stop offset=".03" style="stop-color:#bcbcbd;stop-opacity:1"/><stop offset=".04" style="stop-color:#bababd;stop-opacity:1"/><stop offset=".04" style="stop-color:#bababc;stop-opacity:1"/><stop offset=".05" style="stop-color:#b9b9bc;stop-opacity:1"/><stop offset=".05" style="stop-color:#b8b9bc;stop-opacity:1"/><stop offset=".06" style="stop-color:#b7b7bb;stop-opacity:1"/><stop offset=".07" style="stop-color:#b6b6bb;stop-opacity:1"/><stop offset=".07" style="stop-color:#b5b6ba;stop-opacity:1"/><stop offset=".08" style="stop-color:#b4b4ba;stop-opacity:1"/><stop offset=".09" style="stop-color:#b3b3b9;stop-opacity:1"/><stop offset=".09" style="stop-color:#b2b3b9;stop-opacity:1"/><stop offset=".1" style="stop-color:#b1b1b8;stop-opacity:1"/><stop offset=".1" style="stop-color:#b0b1b8;stop-opacity:1"/><stop offset=".11" style="stop-color:#b0b0b8;stop-opacity:1"/><stop offset=".11" style="stop-color:#afb0b8;stop-opacity:1"/><stop offset=".11" style="stop-color:#afafb7;stop-opacity:1"/><stop offset=".12" style="stop-color:#aeaeb7;stop-opacity:1"/><stop offset=".12" style="stop-color:#adaeb7;stop-opacity:1"/><stop offset=".13" style="stop-color:#adadb7;stop-opacity:1"/><stop offset=".13" style="stop-color:#acadb6;stop-opacity:1"/><stop offset=".14" style="stop-color:#ababb6;stop-opacity:1"/><stop offset=".14" style="stop-color:#aaabb5;stop-opacity:1"/><stop offset=".14" style="stop-color:#aaaab5;stop-opacity:1"/><stop offset=".15" style="stop-color:#a9aab5;stop-opacity:1"/><stop offset=".15" style="stop-color:#a8a9b5;stop-opacity:1"/><stop offset=".16" style="stop-color:#a8a8b4;stop-opacity:1"/><stop offset=".16" style="stop-color:#a7a8b4;stop-opacity:1"/><stop offset=".16" style="stop-color:#a7a7b4;stop-opacity:1"/><stop offset=".17" style="stop-color:#a6a7b3;stop-opacity:1"/><stop offset=".17" style="stop-color:#a5a6b3;stop-opacity:1"/><stop offset=".18" style="stop-color:#a5a5b3;stop-opacity:1"/><stop offset=".18" style="stop-color:#a3a4b2;stop-opacity:1"/><stop offset=".19" style="stop-color:#a2a3b2;stop-opacity:1"/><stop offset=".2" style="stop-color:#a2a2b2;stop-opacity:1"/><stop offset=".2" style="stop-color:#a1a2b1;stop-opacity:1"/><stop offset=".2" style="stop-color:#a0a1b1;stop-opacity:1"/><stop offset=".21" style="stop-color:#a0a1b1;stop-opacity:1"/><stop offset=".21" style="stop-color:#9fa0b0;stop-opacity:1"/><stop offset=".22" style="stop-color:#9d9eb0;stop-opacity:1"/><stop offset=".23" style="stop-color:#9d9eaf;stop-opacity:1"/><stop offset=".23" style="stop-color:#9b9caf;stop-opacity:1"/><stop offset=".24" style="stop-color:#9b9cae;stop-opacity:1"/><stop offset=".24" style="stop-color:#9a9bae;stop-opacity:1"/><stop offset=".25" style="stop-color:#9a9aae;stop-opacity:1"/><stop offset=".25" style="stop-color:#9899ad;stop-opacity:1"/><stop offset=".26" style="stop-color:#9899ad;stop-opacity:1"/><stop offset=".27" style="stop-color:#9697ad;stop-opacity:1"/><stop offset=".27" style="stop-color:#9697ac;stop-opacity:1"/><stop offset=".27" style="stop-color:#9596ac;stop-opacity:1"/><stop offset=".28" style="stop-color:#9495ab;stop-opacity:1"/><stop offset=".29" style="stop-color:#9394ab;stop-opacity:1"/><stop offset=".29" style="stop-color:#9394ab;stop-opacity:1"/><stop offset=".29" style="stop-color:#9293ab;stop-opacity:1"/><stop offset=".3" style="stop-color:#9193aa;stop-opacity:1"/><stop offset=".3" style="stop-color:#9091aa;stop-opacity:1"/><stop offset=".31" style="stop-color:#9091a9;stop-opacity:1"/><stop offset=".31" style="stop-color:#8f90a9;stop-opacity:1"/><stop offset=".32" style="stop-color:#8e90a9;stop-opacity:1"/><stop offset=".32" style="stop-color:#8e8fa9;stop-opacity:1"/><stop offset=".32" style="stop-color:#8d8ea8;stop-opacity:1"/><stop offset=".34" style="stop-color:#8b8da8;stop-opacity:1"/><stop offset=".34" style="stop-color:#8b8ca7;stop-opacity:1"/><stop offset=".34" style="stop-color:#8a8ba7;stop-opacity:1"/><stop offset=".35" style="stop-color:#898ba7;stop-opacity:1"/><stop offset=".35" style="stop-color:#898aa6;stop-opacity:1"/><stop offset=".36" style="stop-color:#888aa6;stop-opacity:1"/><stop offset=".36" style="stop-color:#8788a6;stop-opacity:1"/><stop offset=".37" style="stop-color:#8688a5;stop-opacity:1"/><stop offset=".37" style="stop-color:#8687a5;stop-opacity:1"/><stop offset=".38" style="stop-color:#8486a4;stop-opacity:1"/><stop offset=".38" style="stop-color:#8485a4;stop-opacity:1"/><stop offset=".39" style="stop-color:#8385a4;stop-opacity:1"/><stop offset=".39" style="stop-color:#8384a4;stop-opacity:1"/><stop offset=".39" style="stop-color:#8284a3;stop-opacity:1"/><stop offset=".4" style="stop-color:#8183a3;stop-opacity:1"/><stop offset=".4" style="stop-color:#8182a3;stop-opacity:1"/><stop offset=".41" style="stop-color:#8082a3;stop-opacity:1"/><stop offset=".41" style="stop-color:#8081a2;stop-opacity:1"/><stop offset=".41" style="stop-color:#7f81a2;stop-opacity:1"/><stop offset=".42" style="stop-color:#7e80a2;stop-opacity:1"/><stop offset=".42" style="stop-color:#7e7fa1;stop-opacity:1"/><stop offset=".43" style="stop-color:#7d7fa1;stop-opacity:1"/><stop offset=".43" style="stop-color:#7c7ea1;stop-opacity:1"/><stop offset=".44" style="stop-color:#7b7da0;stop-opacity:1"/><stop offset=".44" style="stop-color:#7b7ca0;stop-opacity:1"/><stop offset=".45" style="stop-color:#797b9f;stop-opacity:1"/><stop offset=".46" style="stop-color:#77799f;stop-opacity:1"/><stop offset=".46" style="stop-color:#77799e;stop-opacity:1"/><stop offset=".49" style="stop-color:#73759d;stop-opacity:1"/><stop offset=".49" style="stop-color:#73749c;stop-opacity:1"/><stop offset=".54" style="stop-color:#74759c;stop-opacity:1"/><stop offset=".55" style="stop-color:#74769c;stop-opacity:1"/><stop offset=".57" style="stop-color:#77789c;stop-opacity:1"/><stop offset=".58" style="stop-color:#78799c;stop-opacity:1"/><stop offset=".59" style="stop-color:#787a9d;stop-opacity:1"/><stop offset=".61" style="stop-color:#7b7c9d;stop-opacity:1"/><stop offset=".62" style="stop-color:#7b7d9d;stop-opacity:1"/><stop offset=".64" style="stop-color:#7e7f9d;stop-opacity:1"/><stop offset=".65" style="stop-color:#7f809d;stop-opacity:1"/><stop offset=".66" style="stop-color:#7f819e;stop-opacity:1"/><stop offset=".67" style="stop-color:#81829e;stop-opacity:1"/><stop offset=".7" style="stop-color:#83859e;stop-opacity:1"/><stop offset=".7" style="stop-color:#84859e;stop-opacity:1"/><stop offset=".72" style="stop-color:#86879e;stop-opacity:1"/><stop offset=".73" style="stop-color:#87889f;stop-opacity:1"/><stop offset=".73" style="stop-color:#87889f;stop-opacity:1"/><stop offset=".77" style="stop-color:#8b8c9f;stop-opacity:1"/><stop offset=".77" style="stop-color:#8b8c9f;stop-opacity:1"/><stop offset=".79" style="stop-color:#8d8e9f;stop-opacity:1"/><stop offset=".8" style="stop-color:#8f8fa0;stop-opacity:1"/><stop offset=".81" style="stop-color:#8f90a0;stop-opacity:1"/><stop offset=".85" style="stop-color:#9394a0;stop-opacity:1"/><stop offset=".86" style="stop-color:#9495a0;stop-opacity:1"/><stop offset=".87" style="stop-color:#9595a1;stop-opacity:1"/><stop offset=".91" style="stop-color:#9a9aa1;stop-opacity:1"/><stop offset=".92" style="stop-color:#9a9ba1;stop-opacity:1"/><stop offset=".93" style="stop-color:#9b9ca1;stop-opacity:1"/><stop offset=".94" style="stop-color:#9c9ca2;stop-opacity:1"/><stop offset=".96" style="stop-color:#9e9fa2;stop-opacity:1"/><stop offset=".97" style="stop-color:#9f9fa2;stop-opacity:1"/><stop offset="1" style="stop-color:#a2a2a2;stop-opacity:1"/></linearGradient><linearGradient id="_Linear11" x1="0" x2="1" y1="0" y2="0" gradientTransform="matrix(-267.39,-463.134,463.134,-267.39,366.644,542.51)" gradientUnits="userSpaceOnUse"><stop offset="0" style="stop-color:#b4b6fe;stop-opacity:1"/><stop offset=".07" style="stop-color:#b2b4fc;stop-opacity:1"/><stop offset=".08" style="stop-color:#afb1fa;stop-opacity:1"/><stop offset=".09" style="stop-color:#adb0f9;stop-opacity:1"/><stop offset=".09" style="stop-color:#acaef7;stop-opacity:1"/><stop offset=".11" style="stop-color:#a9abf5;stop-opacity:1"/><stop offset=".11" style="stop-color:#a8abf4;stop-opacity:1"/><stop offset=".11" style="stop-color:#a7aaf4;stop-opacity:1"/><stop offset=".12" style="stop-color:#a6a9f3;stop-opacity:1"/><stop offset=".12" style="stop-color:#a6a8f2;stop-opacity:1"/><stop offset=".13" style="stop-color:#a4a6f1;stop-opacity:1"/><stop offset=".13" style="stop-color:#a3a6f0;stop-opacity:1"/><stop offset=".14" style="stop-color:#a2a5ef;stop-opacity:1"/><stop offset=".15" style="stop-color:#9fa1ed;stop-opacity:1"/><stop offset=".18" style="stop-color:#989be8;stop-opacity:1"/><stop offset=".19" style="stop-color:#979ae6;stop-opacity:1"/><stop offset=".2" style="stop-color:#9396e3;stop-opacity:1"/><stop offset=".21" style="stop-color:#9296e3;stop-opacity:1"/><stop offset=".21" style="stop-color:#9295e2;stop-opacity:1"/><stop offset=".21" style="stop-color:#9194e1;stop-opacity:1"/><stop offset=".23" style="stop-color:#8e92df;stop-opacity:1"/><stop offset=".23" style="stop-color:#8c90de;stop-opacity:1"/><stop offset=".24" style="stop-color:#8c8fdd;stop-opacity:1"/><stop offset=".24" style="stop-color:#8b8edc;stop-opacity:1"/><stop offset=".25" style="stop-color:#8a8ddc;stop-opacity:1"/><stop offset=".25" style="stop-color:#888cda;stop-opacity:1"/><stop offset=".26" style="stop-color:#878bda;stop-opacity:1"/><stop offset=".26" style="stop-color:#868ad9;stop-opacity:1"/><stop offset=".27" style="stop-color:#8689d8;stop-opacity:1"/><stop offset=".27" style="stop-color:#8589d8;stop-opacity:1"/><stop offset=".28" style="stop-color:#8387d6;stop-opacity:1"/><stop offset=".29" style="stop-color:#8185d5;stop-opacity:1"/><stop offset=".29" style="stop-color:#8184d4;stop-opacity:1"/><stop offset=".29" style="stop-color:#8084d3;stop-opacity:1"/><stop offset=".3" style="stop-color:#7d81d1;stop-opacity:1"/><stop offset=".31" style="stop-color:#7c80d1;stop-opacity:1"/><stop offset=".32" style="stop-color:#7b7fcf;stop-opacity:1"/><stop offset=".32" style="stop-color:#7a7ecf;stop-opacity:1"/><stop offset=".33" style="stop-color:#787ccd;stop-opacity:1"/><stop offset=".33" style="stop-color:#777ccd;stop-opacity:1"/><stop offset=".34" style="stop-color:#767acb;stop-opacity:1"/><stop offset=".34" style="stop-color:#7579cb;stop-opacity:1"/><stop offset=".37" style="stop-color:#6f74c6;stop-opacity:1"/><stop offset=".38" style="stop-color:#6e72c5;stop-opacity:1"/><stop offset=".38" style="stop-color:#6d72c4;stop-opacity:1"/><stop offset=".39" style="stop-color:#6b70c3;stop-opacity:1"/><stop offset=".39" style="stop-color:#6b6fc2;stop-opacity:1"/><stop offset=".4" style="stop-color:#6a6fc2;stop-opacity:1"/><stop offset=".41" style="stop-color:#686dc0;stop-opacity:1"/><stop offset=".42" style="stop-color:#656abe;stop-opacity:1"/><stop offset=".44" style="stop-color:#6469bd;stop-opacity:1"/><stop offset=".5" style="stop-color:#6368bc;stop-opacity:1"/><stop offset=".54" style="stop-color:#656bbe;stop-opacity:1"/><stop offset=".54" style="stop-color:#666cbf;stop-opacity:1"/><stop offset=".54" style="stop-color:#666cc0;stop-opacity:1"/><stop offset=".55" style="stop-color:#676dc0;stop-opacity:1"/><stop offset=".55" style="stop-color:#676ec1;stop-opacity:1"/><stop offset=".55" style="stop-color:#686fc1;stop-opacity:1"/><stop offset=".56" style="stop-color:#6870c2;stop-opacity:1"/><stop offset=".56" style="stop-color:#6970c3;stop-opacity:1"/><stop offset=".57" style="stop-color:#6971c3;stop-opacity:1"/><stop offset=".57" style="stop-color:#6a72c4;stop-opacity:1"/><stop offset=".57" style="stop-color:#6a73c4;stop-opacity:1"/><stop offset=".58" style="stop-color:#6b75c6;stop-opacity:1"/><stop offset=".59" style="stop-color:#6c75c6;stop-opacity:1"/><stop offset=".59" style="stop-color:#6c76c7;stop-opacity:1"/><stop offset=".59" style="stop-color:#6d77c7;stop-opacity:1"/><stop offset=".6" style="stop-color:#6d78c8;stop-opacity:1"/><stop offset=".61" style="stop-color:#6f79c9;stop-opacity:1"/><stop offset=".61" style="stop-color:#6f7aca;stop-opacity:1"/><stop offset=".61" style="stop-color:#707bca;stop-opacity:1"/><stop offset=".63" style="stop-color:#727fce;stop-opacity:1"/><stop offset=".64" style="stop-color:#7380ce;stop-opacity:1"/><stop offset=".64" style="stop-color:#7381cf;stop-opacity:1"/><stop offset=".64" style="stop-color:#7481cf;stop-opacity:1"/><stop offset=".66" style="stop-color:#7584d1;stop-opacity:1"/><stop offset=".67" style="stop-color:#7786d3;stop-opacity:1"/><stop offset=".67" style="stop-color:#7787d4;stop-opacity:1"/><stop offset=".68" style="stop-color:#7888d4;stop-opacity:1"/><stop offset=".68" style="stop-color:#7989d5;stop-opacity:1"/><stop offset=".68" style="stop-color:#7989d5;stop-opacity:1"/><stop offset=".69" style="stop-color:#7a8bd7;stop-opacity:1"/><stop offset=".7" style="stop-color:#7b8cd7;stop-opacity:1"/><stop offset=".7" style="stop-color:#7b8dd8;stop-opacity:1"/><stop offset=".7" style="stop-color:#7c8dd8;stop-opacity:1"/><stop offset=".71" style="stop-color:#7c8ed9;stop-opacity:1"/><stop offset=".71" style="stop-color:#7d8fda;stop-opacity:1"/><stop offset=".71" style="stop-color:#7d90da;stop-opacity:1"/><stop offset=".72" style="stop-color:#7e91dc;stop-opacity:1"/><stop offset=".73" style="stop-color:#7f92dc;stop-opacity:1"/><stop offset=".73" style="stop-color:#7f93dd;stop-opacity:1"/><stop offset=".73" style="stop-color:#8094dd;stop-opacity:1"/><stop offset=".74" style="stop-color:#8095de;stop-opacity:1"/><stop offset=".74" style="stop-color:#8195df;stop-opacity:1"/><stop offset=".75" style="stop-color:#8196df;stop-opacity:1"/><stop offset=".75" style="stop-color:#8398e0;stop-opacity:1"/><stop offset=".76" style="stop-color:#8399e1;stop-opacity:1"/><stop offset=".76" style="stop-color:#8499e2;stop-opacity:1"/><stop offset=".77" style="stop-color:#849ae2;stop-opacity:1"/><stop offset=".77" style="stop-color:#859ce3;stop-opacity:1"/><stop offset=".78" style="stop-color:#869de4;stop-opacity:1"/><stop offset=".78" style="stop-color:#869de5;stop-opacity:1"/><stop offset=".79" style="stop-color:#879ee5;stop-opacity:1"/><stop offset=".79" style="stop-color:#879fe6;stop-opacity:1"/><stop offset=".79" style="stop-color:#88a0e6;stop-opacity:1"/><stop offset=".8" style="stop-color:#88a1e7;stop-opacity:1"/><stop offset=".8" style="stop-color:#89a1e8;stop-opacity:1"/><stop offset=".8" style="stop-color:#89a2e8;stop-opacity:1"/><stop offset=".81" style="stop-color:#8aa3e9;stop-opacity:1"/><stop offset=".81" style="stop-color:#8aa4ea;stop-opacity:1"/><stop offset=".82" style="stop-color:#8ba5ea;stop-opacity:1"/><stop offset=".82" style="stop-color:#8ba5eb;stop-opacity:1"/><stop offset=".83" style="stop-color:#8da8ed;stop-opacity:1"/><stop offset=".84" style="stop-color:#8ea9ed;stop-opacity:1"/><stop offset=".84" style="stop-color:#8ea9ee;stop-opacity:1"/><stop offset=".84" style="stop-color:#8faaee;stop-opacity:1"/><stop offset=".85" style="stop-color:#8fabef;stop-opacity:1"/><stop offset=".86" style="stop-color:#91aef1;stop-opacity:1"/><stop offset=".87" style="stop-color:#92aff2;stop-opacity:1"/><stop offset=".87" style="stop-color:#92b0f3;stop-opacity:1"/><stop offset=".88" style="stop-color:#93b1f3;stop-opacity:1"/><stop offset=".88" style="stop-color:#93b2f4;stop-opacity:1"/><stop offset=".88" style="stop-color:#94b2f5;stop-opacity:1"/><stop offset=".89" style="stop-color:#95b5f6;stop-opacity:1"/><stop offset=".9" style="stop-color:#96b6f7;stop-opacity:1"/><stop offset=".9" style="stop-color:#96b6f8;stop-opacity:1"/><stop offset=".91" style="stop-color:#97b7f8;stop-opacity:1"/><stop offset=".92" style="stop-color:#99bafb;stop-opacity:1"/><stop offset=".93" style="stop-color:#9abbfb;stop-opacity:1"/><stop offset=".93" style="stop-color:#9abcfc;stop-opacity:1"/><stop offset=".93" style="stop-color:#9bbdfc;stop-opacity:1"/><stop offset=".94" style="stop-color:#9bbefd;stop-opacity:1"/><stop offset=".94" style="stop-color:#9cbefe;stop-opacity:1"/><stop offset="1" style="stop-color:#9cbffe;stop-opacity:1"/></linearGradient></defs></svg>